<svg version="1.1" xmlns="http://www.w3.org/2000/svg" viewBox="0 0 872.5 539" width="872.5" height="539">
  <!-- svg-source:excalidraw -->
  
  <defs>
    <style>
      @font-face {
        font-family: "Virgil";
        src: url("https://excalidraw.com/Virgil.woff2");
      }
      @font-face {
        font-family: "Cascadia";
        src: url("https://excalidraw.com/Cascadia.woff2");
      }
    </style>
  </defs>
  <g transform="translate(10 33) rotate(0 45 22)"><text x="45" y="18" font-family="Helvetica, Segoe UI Emoji" font-size="20px" fill="#000000" text-anchor="middle" style="white-space: pre;" direction="ltr">expr (typed</text><text x="45" y="40" font-family="Helvetica, Segoe UI Emoji" font-size="20px" fill="#000000" text-anchor="middle" style="white-space: pre;" direction="ltr">R code)</text></g><g transform="translate(565 10) rotate(0 36 11)"><text x="0" y="18" font-family="Helvetica, Segoe UI Emoji" font-size="20px" fill="#000000" text-anchor="start" style="white-space: pre;" direction="ltr">character</text></g><g transform="translate(279 225) rotate(0 14 11)"><text x="0" y="18" font-family="Helvetica, Segoe UI Emoji" font-size="20px" fill="#000000" text-anchor="start" style="white-space: pre;" direction="ltr">call</text></g><g transform="translate(776 233) rotate(0 41 11)"><text x="0" y="18" font-family="Helvetica, Segoe UI Emoji" font-size="20px" fill="#000000" text-anchor="start" style="white-space: pre;" direction="ltr">expression</text></g><g transform="translate(486.5 485) rotate(0 59.5 22)"><text x="59.5" y="18" font-family="Helvetica, Segoe UI Emoji" font-size="20px" fill="#000000" text-anchor="middle" style="white-space: pre;" direction="ltr">other R objects</text><text x="59.5" y="40" font-family="Helvetica, Segoe UI Emoji" font-size="20px" fill="#000000" text-anchor="middle" style="white-space: pre;" direction="ltr"></text></g><g stroke-linecap="round"><g transform="translate(49.12122805172953 98.00000000000006) rotate(0 102.4299931904003 72.57093633035194)"><path d="M0.54 1.11 C11.39 17.7, 31.53 75.31, 65.28 99.09 C99.03 122.88, 179.88 136.31, 203.04 143.81 M-0.64 0.65 C10.08 17.48, 30.18 76.7, 64.54 100.68 C98.9 124.65, 182.14 137.16, 205.5 144.5" stroke="#000000" stroke-width="1" fill="none"></path></g><g transform="translate(49.12122805172953 98.00000000000006) rotate(0 102.4299931904003 72.57093633035194)"><path d="M177.54 148.6 C185.16 145.34, 192.31 146.28, 203.98 145.25 M174.77 147.24 C184.03 147.22, 193.3 146.15, 205.66 144.51" stroke="#000000" stroke-width="1" fill="none"></path></g><g transform="translate(49.12122805172953 98.00000000000006) rotate(0 102.4299931904003 72.57093633035194)"><path d="M182.3 128.64 C188.37 131.62, 194.03 138.79, 203.98 145.25 M179.53 127.28 C187.51 132.83, 195.45 137.33, 205.66 144.51" stroke="#000000" stroke-width="1" fill="none"></path></g></g><g stroke-linecap="round"><g transform="translate(72.49662960401997 91) rotate(0 96.88345215064163 65.96524453581063)"><path d="M-0.41 0.27 C20.51 5.21, 92.89 8.81, 125.32 30.75 C157.76 52.68, 182.61 114.64, 194.18 131.86 M1.57 -0.64 C22.43 4.99, 92.87 9.95, 124.81 32.15 C156.75 54.35, 181.51 115.91, 193.22 132.57" stroke="#000000" stroke-width="1" fill="none"></path></g><g transform="translate(72.49662960401997 91) rotate(0 96.88345215064163 65.96524453581063)"><path d="M170.94 114.35 C176.62 117.95, 181.47 124.37, 194.99 130.7 M170.15 112.51 C179 119.76, 186.97 125.65, 193.05 132.16" stroke="#000000" stroke-width="1" fill="none"></path></g><g transform="translate(72.49662960401997 91) rotate(0 96.88345215064163 65.96524453581063)"><path d="M188.85 104.33 C189.61 110.67, 189.44 119.9, 194.99 130.7 M188.05 102.49 C190.71 113.41, 192.4 122.81, 193.05 132.16" stroke="#000000" stroke-width="1" fill="none"></path></g></g><g stroke-linecap="round"><g transform="translate(313 216) rotate(0 119.14383575327514 -94.17279880053914)"><path d="M0.19 1.07 C16.55 -17.55, 58.35 -79.44, 98.23 -111.18 C138.1 -142.93, 215.74 -176.28, 239.45 -189.42 M-1.16 0.59 C15.57 -17.98, 60.58 -78.79, 100.53 -110.27 C140.49 -141.74, 215.14 -175.08, 238.59 -188.27" stroke="#000000" stroke-width="1" fill="none"></path></g><g transform="translate(313 216) rotate(0 119.14383575327514 -94.17279880053914)"><path d="M219.97 -167.57 C222.41 -173.41, 230.12 -178.46, 237.02 -186.66 M219.05 -165.64 C224.38 -173.16, 229.84 -177.36, 238.86 -187.96" stroke="#000000" stroke-width="1" fill="none"></path></g><g transform="translate(313 216) rotate(0 119.14383575327514 -94.17279880053914)"><path d="M210.6 -185.83 C216.01 -186.06, 226.61 -185.47, 237.02 -186.66 M209.69 -183.9 C217.6 -186.64, 225.56 -185.98, 238.86 -187.96" stroke="#000000" stroke-width="1" fill="none"></path></g></g><g stroke-linecap="round"><g transform="translate(562.2823368592237 43.68821231212311) rotate(0 -112.2236827720726 93.25797180446875)"><path d="M-0.84 -0.41 C-16.27 17.89, -54.9 77.31, -92.23 108.74 C-129.56 140.17, -202.75 174.99, -224.84 188.19 M0.92 -1.67 C-14.17 16.35, -52.3 75.51, -90.01 106.84 C-127.73 138.17, -203 173.16, -225.37 186.3" stroke="#000000" stroke-width="1" fill="none"></path></g><g transform="translate(562.2823368592237 43.68821231212311) rotate(0 -112.2236827720726 93.25797180446875)"><path d="M-206 162.41 C-211.4 171.94, -217.26 179.45, -224.35 186.51 M-204.76 163.72 C-211.97 171.39, -219.01 178.95, -225.44 187.03" stroke="#000000" stroke-width="1" fill="none"></path></g><g transform="translate(562.2823368592237 43.68821231212311) rotate(0 -112.2236827720726 93.25797180446875)"><path d="M-196.35 180.52 C-204.77 184.02, -213.81 185.56, -224.35 186.51 M-195.11 181.83 C-205.63 183.2, -216.05 184.41, -225.44 187.03" stroke="#000000" stroke-width="1" fill="none"></path></g></g><g transform="translate(49 199) rotate(0 23.5 10)"><text x="23.5" y="16" font-family="Cascadia, Segoe UI Emoji" font-size="16px" fill="#000000" text-anchor="middle" style="white-space: pre;" direction="ltr">quote</text></g><g transform="translate(171 87) rotate(0 47 10)"><text x="47" y="16" font-family="Cascadia, Segoe UI Emoji" font-size="16px" fill="#000000" text-anchor="middle" style="white-space: pre;" direction="ltr">substitute</text></g><g transform="translate(404 38) rotate(0 33 10)"><text x="33" y="16" font-family="Cascadia, Segoe UI Emoji" font-size="16px" fill="#000000" text-anchor="middle" style="white-space: pre;" direction="ltr">deparse</text></g><g transform="translate(440.5 190) rotate(0 37.5 10)"><text x="37.5" y="16" font-family="Cascadia, Segoe UI Emoji" font-size="16px" fill="#000000" text-anchor="middle" style="white-space: pre;" direction="ltr">str2lang</text></g><g stroke-linecap="round"><g transform="translate(768.8198617430778 234.12435672536287) rotate(0 -79.56050423738623 -97.48360437074574)"><path d="M0.08 -0.89 C-19.87 -15.36, -92.62 -54.64, -119.17 -87.2 C-145.71 -119.75, -152.7 -178.27, -159.2 -196.23 M-1.34 1.26 C-21.53 -12.99, -94.38 -52.91, -120.3 -85.7 C-146.22 -118.49, -150.6 -177.49, -156.88 -195.49" stroke="#000000" stroke-width="1" fill="none"></path></g><g transform="translate(768.8198617430778 234.12435672536287) rotate(0 -79.56050423738623 -97.48360437074574)"><path d="M-142.12 -170.84 C-146.3 -180.78, -153.62 -187.79, -156.54 -193.71 M-140.64 -170.96 C-145.14 -176.26, -148.58 -183.69, -156.24 -196.11" stroke="#000000" stroke-width="1" fill="none"></path></g><g transform="translate(768.8198617430778 234.12435672536287) rotate(0 -79.56050423738623 -97.48360437074574)"><path d="M-162.13 -166.31 C-159.39 -177.83, -159.8 -186.39, -156.54 -193.71 M-160.65 -166.43 C-160.08 -172.85, -158.47 -181.42, -156.24 -196.11" stroke="#000000" stroke-width="1" fill="none"></path></g></g><g stroke-linecap="round"><g transform="translate(631.4763105132238 47) rotate(0 84.52640402305713 91.87772899998357)"><path d="M0.8 0.47 C16.32 11.39, 64.59 34.02, 92.67 64.62 C120.75 95.23, 156.65 164.53, 169.29 184.08 M-0.24 -0.33 C15.26 10.32, 64.17 32.39, 92.33 62.83 C120.48 93.27, 155.97 162.36, 168.67 182.31" stroke="#000000" stroke-width="1" fill="none"></path></g><g transform="translate(631.4763105132238 47) rotate(0 84.52640402305713 91.87772899998357)"><path d="M146.42 165 C152.63 168.49, 159.48 172.32, 166.89 181.12 M145.39 162.21 C153.86 170.09, 162.17 177.47, 168.85 181.51" stroke="#000000" stroke-width="1" fill="none"></path></g><g transform="translate(631.4763105132238 47) rotate(0 84.52640402305713 91.87772899998357)"><path d="M164.16 154.69 C165.6 161.02, 167.76 167.58, 166.89 181.12 M163.13 151.89 C165.03 163.57, 166.76 174.78, 168.85 181.51" stroke="#000000" stroke-width="1" fill="none"></path></g></g><g transform="translate(731.5 82) rotate(0 65.5 10)"><text x="65.5" y="16" font-family="Cascadia, Segoe UI Emoji" font-size="16px" fill="#000000" text-anchor="middle" style="white-space: pre;" direction="ltr">str2expression</text></g><g transform="translate(596 186) rotate(0 33 10)"><text x="33" y="16" font-family="Cascadia, Segoe UI Emoji" font-size="16px" fill="#000000" text-anchor="middle" style="white-space: pre;" direction="ltr">deparse</text></g><g stroke-linecap="round"><g transform="translate(768.7239390248803 259.4780587427573) rotate(0 -225.4129810351319 18.671937430009848)"><path d="M0.97 -0.12 C-39.1 7.46, -165.11 46.21, -240.43 44.79 C-315.74 43.38, -415.81 0.08, -450.93 -8.61 M0.02 -1.23 C-39.65 6.55, -162.78 46.97, -238.08 45.95 C-313.39 44.93, -416.3 1.85, -451.8 -7.35" stroke="#000000" stroke-width="1" fill="none"></path></g><g transform="translate(768.7239390248803 259.4780587427573) rotate(0 -225.4129810351319 18.671937430009848)"><path d="M-422.02 -9.62 C-432 -8.22, -439.95 -8.18, -449.85 -9.24 M-420.93 -8.25 C-432.88 -8.72, -442.74 -6.76, -451.46 -6.44" stroke="#000000" stroke-width="1" fill="none"></path></g><g transform="translate(768.7239390248803 259.4780587427573) rotate(0 -225.4129810351319 18.671937430009848)"><path d="M-428.33 9.91 C-436.32 5.42, -442.39 -0.37, -449.85 -9.24 M-427.24 11.28 C-437.07 4.05, -444.74 -0.74, -451.46 -6.44" stroke="#000000" stroke-width="1" fill="none"></path></g></g><g transform="translate(494.5 320) rotate(0 37.5 10)"><text x="37.5" y="16" font-family="Cascadia, Segoe UI Emoji" font-size="16px" fill="#000000" text-anchor="middle" style="white-space: pre;" direction="ltr">[, [[, $</text></g><g stroke-linecap="round"><g transform="translate(302 280) rotate(0 81.67607181238009 109.1717618273012)"><path d="M-0.07 -0.63 C9.38 24.09, 29.87 111.7, 57.37 148.11 C84.87 184.51, 147.2 206.09, 164.92 217.78 M-1.57 1.65 C7.69 26.6, 28.91 113.48, 56.61 149.7 C84.32 185.92, 146.78 207.35, 164.64 218.98" stroke="#000000" stroke-width="1" fill="none"></path></g><g transform="translate(302 280) rotate(0 81.67607181238009 109.1717618273012)"><path d="M133.81 215.93 C145.64 218.18, 155.7 217.43, 165.03 220.6 M134.28 214.56 C143.73 216.42, 151.09 216.69, 165.07 219.58" stroke="#000000" stroke-width="1" fill="none"></path></g><g transform="translate(302 280) rotate(0 81.67607181238009 109.1717618273012)"><path d="M143.13 197.64 C151.61 206.4, 158.35 212.17, 165.03 220.6 M143.61 196.28 C150.35 203.37, 155.09 208.77, 165.07 219.58" stroke="#000000" stroke-width="1" fill="none"></path></g></g><g stroke-linecap="round"><g transform="translate(808 276) rotate(0 -88.95832965550937 113.4073048814945)"><path d="M0.24 0.52 C-9.46 25.69, -29.02 113.24, -58.72 150.99 C-88.41 188.75, -158.02 214.71, -177.95 227.06 M-1.09 -0.25 C-10.36 25.12, -26.87 114.94, -56.38 152.53 C-85.89 190.11, -157.95 213.08, -178.16 225.27" stroke="#000000" stroke-width="1" fill="none"></path></g><g transform="translate(808 276) rotate(0 -88.95832965550937 113.4073048814945)"><path d="M-156.17 202.77 C-162.5 211.26, -166.18 216.22, -179.71 224.68 M-156.88 203.67 C-161.73 208.96, -167.63 215.19, -178.12 224.73" stroke="#000000" stroke-width="1" fill="none"></path></g><g transform="translate(808 276) rotate(0 -88.95832965550937 113.4073048814945)"><path d="M-147.41 221.33 C-156.01 225.05, -161.94 225.22, -179.71 224.68 M-148.13 222.23 C-155.39 222.42, -163.67 223.62, -178.12 224.73" stroke="#000000" stroke-width="1" fill="none"></path></g></g><g transform="translate(298 414) rotate(0 19 10)"><text x="19" y="16" font-family="Cascadia, Segoe UI Emoji" font-size="16px" fill="#000000" text-anchor="middle" style="white-space: pre;" direction="ltr">eval</text></g><g transform="translate(782 410) rotate(0 19 10)"><text x="19" y="16" font-family="Cascadia, Segoe UI Emoji" font-size="16px" fill="#000000" text-anchor="middle" style="white-space: pre;" direction="ltr">eval</text></g></svg>